#N canvas -8 -8 1366 725 10;
#X declare -lib mrpeach;
#X obj 499 265 +;
#X floatatom 515 425 5 0 0 0 - - -;
#X obj 436 150 int 1;
#X obj 479 224 int 0;
#X obj 440 56 tgl 15 0 empty empty empty 17 7 0 10 -262144 -1 -1 0
1;
#X obj 602 112 bng 15 250 50 0 empty empty empty 17 7 0 10 -262144
-1 -1;
#X msg 691 140 0;
#X msg 499 131 1;
#X text 628 110 reset;
#X obj 476 174 trigger a b a;
#X obj 457 101 receive secuencia;
#X obj 499 291 send secuencia;
#X obj 317 526 packOSC;
#X obj 312 650 udpsend;
#X msg 509 585 disconnect;
#X obj 603 70 import mrpeach;
#X obj 40 426 unpackOSC;
#X obj 41 468 print;
#X msg 512 623 connect 127.0.0.1 12000;
#X msg 516 486 /x \$1;
#X obj 16 341 udpreceive 12001;
#X obj 514 456 i;
#X floatatom 1097 836 5 0 0 0 - - -;
#X obj 1037 518 key;
#X floatatom 1037 550 5 0 0 0 - - -;
#X obj 1037 583 select 97 115 100 102 103 104 106;
#X msg 1095 924 /red \$1;
#X msg 956 664 255;
#X msg 1009 665 255;
#X msg 1073 665 255;
#X msg 1126 666 0;
#X msg 1172 666 0;
#X msg 1225 667 75;
#X msg 1283 664 255;
#X obj 1096 892 i;
#X obj 858 49 key;
#X floatatom 858 81 5 0 0 0 - - -;
#X obj 858 114 select 97 115 100 102 103 104 106;
#X msg 990 455 /g \$1;
#X floatatom 984 364 5 0 0 0 - - -;
#X msg 904 236 255;
#X msg 1003 237 0;
#X msg 840 236 127;
#X msg 957 237 255;
#X msg 1056 238 0;
#X msg 1114 235 0;
#X obj 991 423 i;
#X obj 1207 70 key;
#X floatatom 1207 102 5 0 0 0 - - -;
#X obj 1207 135 select 97 115 100 102 103 104 106;
#X msg 1412 474 /b \$1;
#X floatatom 1415 384 5 0 0 0 - - -;
#X msg 1307 296 0;
#X msg 1464 294 255;
#X msg 1190 295 0;
#X msg 1254 295 0;
#X msg 1353 296 255;
#X msg 1406 297 130;
#X obj 1413 442 i;
#X msg 795 251 0;
#X msg 1149 298 0;
#X obj 441 82 metro 200;
#X obj 294 121 bng 15 250 50 0 empty empty empty 17 7 0 10 -262144
-1 -1;
#X obj 278 163 counter 7;
#X floatatom 289 208 5 0 0 0 - - -;
#X obj 275 257 select 0 1 2 3 4 5 6;
#X obj 244 312 bng 15 250 50 0 empty empty empty 17 7 0 10 -262144
-1 -1;
#X obj 273 313 bng 15 250 50 0 empty empty empty 17 7 0 10 -262144
-1 -1;
#X obj 299 315 bng 15 250 50 0 empty empty empty 17 7 0 10 -262144
-1 -1;
#X obj 325 314 bng 15 250 50 0 empty empty empty 17 7 0 10 -262144
-1 -1;
#X obj 354 315 bng 15 250 50 0 empty empty empty 17 7 0 10 -262144
-1 -1;
#X obj 380 317 bng 15 250 50 0 empty empty empty 17 7 0 10 -262144
-1 -1;
#X obj 409 318 bng 15 250 50 0 empty empty empty 17 7 0 10 -262144
-1 -1;
#X floatatom 191 364 5 0 0 0 - - -;
#X floatatom 240 364 5 0 0 0 - - -;
#X floatatom 275 366 5 0 0 0 - - -;
#X floatatom 314 367 5 0 0 0 - - -;
#X floatatom 357 364 5 0 0 0 - - -;
#X floatatom 392 366 5 0 0 0 - - -;
#X floatatom 436 369 5 0 0 0 - - -;
#X obj 278 468 osc~;
#X obj 235 514 *~ 1;
#X obj 233 566 dac~;
#X obj 297 416 mtof~;
#X connect 0 0 11 0;
#X connect 1 0 21 0;
#X connect 2 0 1 0;
#X connect 2 0 9 0;
#X connect 3 0 0 0;
#X connect 4 0 61 0;
#X connect 5 0 7 0;
#X connect 5 0 6 0;
#X connect 6 0 3 1;
#X connect 6 0 1 0;
#X connect 7 0 2 1;
#X connect 9 0 3 1;
#X connect 9 1 3 0;
#X connect 9 2 0 1;
#X connect 10 0 2 1;
#X connect 12 0 13 0;
#X connect 14 0 13 0;
#X connect 16 0 17 0;
#X connect 18 0 13 0;
#X connect 19 0 12 0;
#X connect 20 0 16 0;
#X connect 21 0 19 0;
#X connect 22 0 34 0;
#X connect 23 0 24 0;
#X connect 24 0 25 0;
#X connect 25 0 27 0;
#X connect 25 1 28 0;
#X connect 25 2 29 0;
#X connect 25 3 30 0;
#X connect 25 4 31 0;
#X connect 25 5 32 0;
#X connect 25 6 33 0;
#X connect 26 0 12 0;
#X connect 27 0 22 0;
#X connect 28 0 22 0;
#X connect 29 0 22 0;
#X connect 30 0 22 0;
#X connect 31 0 22 0;
#X connect 32 0 22 0;
#X connect 33 0 22 0;
#X connect 34 0 26 0;
#X connect 35 0 36 0;
#X connect 36 0 37 0;
#X connect 37 0 59 0;
#X connect 37 1 42 0;
#X connect 37 2 40 0;
#X connect 37 3 43 0;
#X connect 37 4 41 0;
#X connect 37 5 44 0;
#X connect 37 6 45 0;
#X connect 38 0 12 0;
#X connect 39 0 46 0;
#X connect 40 0 39 0;
#X connect 41 0 39 0;
#X connect 42 0 39 0;
#X connect 43 0 39 0;
#X connect 44 0 39 0;
#X connect 45 0 39 0;
#X connect 46 0 38 0;
#X connect 47 0 48 0;
#X connect 48 0 49 0;
#X connect 49 0 60 0;
#X connect 49 1 54 0;
#X connect 49 2 55 0;
#X connect 49 3 52 0;
#X connect 49 4 56 0;
#X connect 49 5 57 0;
#X connect 49 6 53 0;
#X connect 50 0 12 0;
#X connect 51 0 58 0;
#X connect 52 0 51 0;
#X connect 53 0 51 0;
#X connect 54 0 51 0;
#X connect 55 0 51 0;
#X connect 56 0 51 0;
#X connect 57 0 51 0;
#X connect 58 0 50 0;
#X connect 59 0 39 0;
#X connect 60 0 51 0;
#X connect 61 0 2 0;
#X connect 61 0 62 0;
#X connect 62 0 63 0;
#X connect 63 0 64 0;
#X connect 64 0 65 0;
#X connect 65 0 66 0;
#X connect 65 1 67 0;
#X connect 65 2 68 0;
#X connect 65 3 69 0;
#X connect 65 4 70 0;
#X connect 65 5 71 0;
#X connect 65 6 72 0;
#X connect 66 0 73 0;
#X connect 67 0 74 0;
#X connect 68 0 75 0;
#X connect 69 0 76 0;
#X connect 70 0 77 0;
#X connect 71 0 78 0;
#X connect 72 0 79 0;
#X connect 73 0 83 0;
#X connect 74 0 83 0;
#X connect 75 0 83 0;
#X connect 76 0 83 0;
#X connect 77 0 83 0;
#X connect 78 0 83 0;
#X connect 79 0 83 0;
#X connect 80 0 81 0;
#X connect 81 0 82 0;
#X connect 81 0 82 1;
#X connect 83 0 80 0;
